HIERARCHY
ROOT root
{
	OFFSET 0.000000 0.000000 0.000000
	CHANNELS 6 Xposition Yposition Zposition Zrotation Yrotation Xrotation
	JOINT lhip
	{
		OFFSET 0.058581 -0.082280 -0.017664
		CHANNELS 3 Zrotation Yrotation Xrotation
		JOINT lknee
		{
			OFFSET 0.043451 -0.386469 0.008037
			CHANNELS 3 Zrotation Yrotation Xrotation
			JOINT lankle
			{
				OFFSET -0.014790 -0.426874 -0.037428
				CHANNELS 3 Zrotation Yrotation Xrotation
				JOINT ltoe
				{
					OFFSET 0.041054 -0.060286 0.122042
					CHANNELS 3 Zrotation Yrotation Xrotation
					End Site
					{
						OFFSET 0.000000 0.000000 0.000000
					}
				}
			}
		}
	}
	JOINT rhip
	{
		OFFSET -0.060310 -0.090513 -0.013543
		CHANNELS 3 Zrotation Yrotation Xrotation
		JOINT rknee
		{
			OFFSET -0.043257 -0.383688 -0.004843
			CHANNELS 3 Zrotation Yrotation Xrotation
			JOINT rankle
			{
				OFFSET 0.019056 -0.420046 -0.034562
				CHANNELS 3 Zrotation Yrotation Xrotation
				JOINT rtoe
				{
					OFFSET -0.034840 -0.062106 0.130323
					CHANNELS 3 Zrotation Yrotation Xrotation
					End Site
					{
						OFFSET 0.000000 0.000000 0.000000
					}
				}
			}
		}
	}
	JOINT lowerback
	{
		OFFSET 0.004439 0.124404 -0.038385
		CHANNELS 3 Zrotation Yrotation Xrotation
		JOINT upperback
		{
			OFFSET 0.004488 0.137956 0.026820
			CHANNELS 3 Zrotation Yrotation Xrotation
			JOINT chest
			{
				OFFSET -0.002265 0.056032 0.002855
				CHANNELS 3 Zrotation Yrotation Xrotation
				JOINT lowerneck
				{
					OFFSET -0.013390 0.211636 -0.033468
					CHANNELS 3 Zrotation Yrotation Xrotation
					JOINT upperneck
					{
						OFFSET 0.010113 0.088937 0.050410
						CHANNELS 3 Zrotation Yrotation Xrotation
						End Site
						{
							OFFSET 0.000000 0.000000 0.000000
						}
					}
				}
				JOINT lclavicle
				{
					OFFSET 0.071702 0.114000 -0.018898
					CHANNELS 3 Zrotation Yrotation Xrotation
					JOINT lshoulder
					{
						OFFSET 0.122921 0.045205 -0.019046
						CHANNELS 3 Zrotation Yrotation Xrotation
						JOINT lelbow
						{
							OFFSET 0.255332 -0.015649 -0.022946
							CHANNELS 3 Zrotation Yrotation Xrotation
							JOINT lwrist
							{
								OFFSET 0.265709 0.012698 -0.007375
								CHANNELS 3 Zrotation Yrotation Xrotation
								End Site
								{
									OFFSET 0.000000 0.000000 0.000000
								}
							}
						}
					}
				}
				JOINT rclavicle
				{
					OFFSET -0.082954 0.112472 -0.023707
					CHANNELS 3 Zrotation Yrotation Xrotation
					JOINT rshoulder
					{
						OFFSET -0.113228 0.046853 -0.008472
						CHANNELS 3 Zrotation Yrotation Xrotation
						JOINT relbow
						{
							OFFSET -0.260127 -0.014369 -0.031269
							CHANNELS 3 Zrotation Yrotation Xrotation
							JOINT rwrist
							{
								OFFSET -0.269108 0.006794 -0.006027
								CHANNELS 3 Zrotation Yrotation Xrotation
								End Site
								{
									OFFSET 0.000000 0.000000 0.000000
								}
							}
						}
					}
				}
			}
		}
	}
}
MOTION
Frames: 17
Frame Time: 0.033333
-0.796018 0.496936 0.973682 64.151676 -3.936629 93.341752 -2.621003 3.697607 5.572895 -10.350012 2.577867 21.702070 1.814159 13.182960 -24.844186 0.000000 -0.000000 0.000000 -10.858918 -2.904650 -37.336748 -0.653555 -9.435022 26.129684 5.868510 -9.670603 -13.527049 0.000000 -0.000000 0.000000 3.337111 -7.831218 17.535186 4.400941 -1.643658 -3.939460 -1.298830 -2.688428 12.944218 4.354562 -0.174216 11.487258 -6.248989 8.218739 -3.328879 -13.454137 25.019063 -6.257117 -68.673944 1.623299 20.690869 175.382218 -55.998220 -139.117481 -8.902969 -9.063004 -14.571018 16.606708 -16.908790 -13.272962 65.693961 5.756249 21.040755 172.578926 61.560643 -156.259285 18.223790 8.305985 -9.368307 
-0.776701 0.475772 0.978692 63.988472 -4.428368 94.262975 -1.395563 3.862273 3.654114 -11.161939 4.969788 26.054012 0.843687 11.788577 -20.710294 0.000000 -0.000000 0.000000 -11.032573 -3.260897 -37.037548 -0.681902 -10.702202 27.062111 4.697856 -9.552275 -12.505768 0.000000 -0.000000 0.000000 3.491099 -7.581725 17.247209 4.405471 -1.609936 -3.968865 -1.206306 -2.881813 12.491986 4.915106 0.298860 10.658584 -6.799226 7.570633 -3.439022 -13.455283 24.474584 -6.205734 -68.667953 1.163492 20.664085 174.736861 -56.120598 -138.175085 -8.709019 -8.913519 -14.371850 16.641932 -16.764759 -13.079840 65.517351 5.702119 20.727771 172.168453 61.465956 -156.888184 18.214294 8.101990 -9.255067 
-0.758956 0.454083 0.981248 64.092717 -5.109431 95.002132 0.288920 4.217559 -0.054093 -11.559128 8.968456 33.828332 1.443357 10.401463 -16.531728 0.000000 -0.000000 0.000000 -10.953842 -3.806847 -37.056667 -0.725742 -10.809953 28.632199 3.509084 -8.734089 -11.734427 0.000000 -0.000000 0.000000 3.128430 -7.063398 17.399457 4.530406 -1.871086 -4.247359 -1.017567 -3.077401 11.885420 5.339896 0.510966 10.522093 -7.001409 7.106576 -3.541268 -13.270083 23.919002 -6.006243 -68.436290 0.578710 20.535355 174.638606 -55.934220 -138.144245 -8.099953 -8.749430 -14.754646 16.639216 -16.820375 -12.763366 65.186425 5.567199 20.444087 171.725096 61.291498 -157.698088 17.877427 7.963807 -9.551245 
-0.742964 0.433120 0.981079 64.138804 -5.569786 95.239340 2.045587 4.463776 -4.252612 -10.828934 12.596168 43.479333 3.106569 10.196182 -15.732625 0.000000 -0.000000 0.000000 -10.978281 -3.629381 -37.366523 -0.828256 -10.792719 31.475519 2.516394 -8.300874 -11.214326 0.000000 -0.000000 0.000000 2.527379 -6.625321 18.276671 4.803535 -2.062226 -4.483817 -0.767447 -3.113524 11.298656 5.427899 0.421717 10.835979 -6.940972 6.963508 -3.841113 -13.185874 23.411484 -5.829368 -68.145709 -0.101543 20.313324 174.455448 -55.407341 -138.112196 -7.203416 -8.543603 -15.423248 16.494889 -16.695870 -12.487024 64.664801 5.626014 20.166941 171.624211 61.135789 -157.913699 17.202764 7.949733 -10.226106 
-0.727879 0.414016 0.977627 64.064428 -5.659147 94.920628 3.791902 4.667648 -8.686376 -10.650897 13.914632 54.221867 3.225824 8.239828 -19.123637 0.000000 -0.000000 0.000000 -10.918355 -3.078175 -37.638432 -0.869075 -10.879257 35.032586 1.391722 -8.248341 -11.216828 0.000000 -0.000000 0.000000 2.148321 -6.423698 20.160987 4.967184 -2.009926 -5.255645 -0.586848 -3.079079 11.310301 5.739946 0.652124 11.266390 -7.086684 6.519696 -3.942075 -13.160567 23.103948 -5.646046 -68.015365 -1.061401 20.216478 174.031403 -54.877802 -137.653566 -6.432907 -8.541890 -15.842438 16.306032 -16.303978 -12.162305 64.193386 6.151755 19.510584 171.397254 61.007036 -157.783703 16.298610 8.110029 -11.084797 
-0.713914 0.396455 0.971662 64.094212 -5.690129 94.371705 5.455758 4.635818 -13.911411 -11.203861 14.969217 65.357955 3.031435 5.989573 -22.721035 0.000000 -0.000000 0.000000 -10.482564 -2.685963 -37.964828 -1.286699 -10.682048 39.022164 0.051137 -8.460116 -12.199742 0.000000 -0.000000 0.000000 1.782414 -6.084364 22.229227 5.074758 -2.080365 -5.870924 -0.409428 -3.131388 11.534600 5.981896 0.773898 12.150551 -7.189538 6.088524 -4.003133 -13.138443 22.744452 -5.374758 -67.986165 -2.076846 20.040967 173.536777 -54.582463 -136.964375 -5.883095 -8.505633 -16.114413 16.195386 -15.845416 -11.925616 63.987113 6.678505 18.735231 171.359826 61.008262 -157.241988 15.514849 8.232529 -11.911051 
-0.701314 0.379160 0.964419 64.162678 -5.786351 93.907139 7.022645 4.229875 -19.927943 -10.811228 17.090232 75.973536 3.060065 5.420199 -25.629240 0.000000 -0.000000 0.000000 -9.847869 -1.901098 -38.435174 -2.006385 -10.125298 43.058386 -1.155224 -9.419176 -13.712187 0.000000 -0.000000 0.000000 1.173775 -5.521640 24.191130 5.244089 -2.324688 -6.466949 -0.179910 -3.186739 11.802713 5.876354 0.719364 13.827812 -7.019797 5.843415 -4.187614 -13.093320 22.519128 -5.115441 -67.816391 -2.865075 19.823717 173.289372 -54.481518 -136.503425 -5.627710 -8.329263 -16.653448 16.071320 -15.598709 -11.804664 64.191295 6.932232 18.266181 171.316816 61.086614 -156.451549 14.641550 8.193175 -12.716905 
-0.688257 0.362139 0.956005 64.218861 -6.014624 93.342378 8.502260 3.660696 -26.212177 -9.133803 19.502569 85.561954 3.116077 5.400573 -27.713331 0.000000 -0.000000 0.000000 -9.383903 -0.870267 -38.684389 -2.770596 -9.590521 47.100484 -1.871219 -10.777909 -16.073883 0.000000 -0.000000 0.000000 0.400780 -4.871098 26.125308 5.352954 -2.725370 -7.183478 0.085624 -3.190893 12.282134 5.234230 0.486638 16.128487 -6.495653 5.797556 -4.500040 -12.917781 22.527802 -4.865313 -67.834398 -3.267668 19.559868 173.254208 -54.452550 -136.219534 -5.724777 -8.218000 -17.530381 15.825318 -15.629550 -11.706114 64.605287 7.105785 18.140377 171.055340 61.085958 -155.695193 13.965435 8.168055 -13.498856 
-0.674507 0.345831 0.946436 64.162087 -6.173530 92.702309 9.942469 3.577642 -32.731118 -7.374329 21.438671 93.654394 3.225959 5.233812 -29.177091 0.000000 -0.000000 0.000000 -8.989862 0.154962 -38.627584 -3.360907 -9.284362 50.895244 -2.229621 -12.066714 -18.716495 0.000000 -0.000000 0.000000 -0.159067 -4.242475 27.895973 5.267006 -3.073377 -7.859411 0.234372 -3.185744 12.965697 4.645748 0.242500 18.619229 -5.990443 5.762235 -4.665240 -12.670006 22.792361 -4.753723 -67.975748 -3.477426 19.285820 173.415868 -54.437619 -136.114735 -5.808104 -8.017087 -18.508763 15.413255 -15.836998 -11.586386 65.152024 7.174136 18.154902 170.326939 60.975009 -155.516502 13.270767 8.214369 -14.750733 
-0.660093 0.330549 0.936408 64.011352 -6.208231 92.014681 11.117428 3.869824 -39.394656 -6.214940 22.939747 99.667495 3.397587 4.677323 -30.555620 0.000000 -0.000000 0.000000 -8.470080 0.841762 -38.302341 -3.750602 -8.973623 54.405736 -2.278507 -13.067865 -21.438010 0.000000 -0.000000 0.000000 -0.477165 -3.646051 29.344469 5.043667 -3.412668 -8.300933 0.231025 -3.077208 13.814546 4.305184 0.035725 20.957917 -5.429744 5.498863 -4.633388 -12.411530 23.309010 -4.998929 -68.405197 -3.595110 19.152039 173.741442 -54.501054 -136.144501 -6.109421 -7.766702 -18.980727 14.948212 -16.104892 -11.511989 65.600118 7.219993 18.275601 169.360532 60.864407 -155.745591 12.780634 8.337678 -16.078527 
-0.644939 0.315764 0.926759 63.816828 -6.181616 91.082318 11.936299 4.246046 -45.659318 -5.231076 24.181399 103.323670 3.670452 4.537617 -31.597545 0.000000 -0.000000 0.000000 -7.843387 1.181890 -37.425718 -4.005737 -8.638925 57.601889 -2.105979 -13.794369 -24.243924 0.000000 -0.000000 0.000000 -0.761013 -2.961765 30.575961 4.783679 -3.881969 -8.305254 0.173423 -2.970780 14.860409 4.135925 -0.225846 22.965137 -4.777197 5.220089 -4.792238 -12.104836 23.922591 -5.390803 -69.102496 -3.600832 18.991044 174.228905 -54.519105 -136.494901 -6.370312 -7.532687 -19.125667 14.420772 -16.343693 -11.525691 66.095908 7.412858 18.510560 168.330924 60.906391 -156.162890 12.496257 8.468158 -17.125237 
-0.628200 0.300935 0.917599 63.517634 -6.118809 89.920534 12.370036 4.756535 -50.934281 -4.130504 25.183993 104.455593 4.020391 5.044062 -32.145806 0.000000 -0.000000 0.000000 -7.143365 1.479783 -35.916421 -4.216761 -8.268879 60.399358 -1.753474 -14.399665 -27.088277 0.000000 -0.000000 0.000000 -0.964432 -2.234145 31.507724 4.428272 -4.422054 -7.762803 0.052721 -2.967981 15.656554 3.952051 -0.522312 25.115756 -4.254198 5.204385 -4.921076 -11.938338 24.237047 -5.564299 -69.428510 -3.321654 18.657490 174.704423 -54.408809 -137.020046 -6.525569 -7.372752 -19.200101 13.794397 -16.369051 -11.356712 66.727545 7.564843 18.822868 167.552219 61.073332 -156.358541 12.173074 8.580509 -17.965674 
-0.609532 0.285799 0.909451 63.224847 -5.817059 88.772130 12.385385 5.246512 -54.948021 -3.219497 25.752428 102.826304 4.399755 6.038085 -32.092599 0.000000 -0.000000 0.000000 -6.192358 1.859985 -33.932697 -4.423197 -8.016686 62.619096 -1.298756 -15.002560 -29.773242 0.000000 -0.000000 0.000000 -0.923739 -1.654442 31.853709 4.125915 -4.941524 -6.921703 -0.083641 -2.943941 16.087899 3.497363 -0.811925 27.471826 -3.764804 5.278296 -4.428761 -11.939384 24.305721 -5.515450 -69.570036 -2.870886 18.267580 175.234049 -54.657610 -137.754164 -7.028719 -7.348273 -19.193127 13.238560 -16.220558 -10.973584 67.194701 7.605491 19.064298 167.076826 61.290155 -156.395621 12.065835 8.745829 -18.410067 
-0.588722 0.270001 0.903418 63.013196 -5.368250 87.554727 11.933185 5.548415 -56.945680 -2.869579 26.028984 98.111877 4.677587 7.240088 -31.579984 0.000000 -0.000000 0.000000 -5.072869 2.099838 -31.256686 -4.579783 -7.823250 64.072893 -0.673762 -15.464245 -32.219432 0.000000 -0.000000 0.000000 -0.857366 -1.118900 31.661445 3.929536 -5.447548 -5.912863 -0.170702 -2.874490 16.426390 3.050222 -1.041639 29.424666 -3.400291 5.422298 -3.728341 -11.875359 24.338761 -5.413282 -69.965952 -2.488772 17.979906 176.037061 -55.256042 -138.791731 -7.991753 -7.333011 -18.874673 12.781966 -16.101019 -10.513323 67.620446 7.612335 19.311210 166.970750 61.623529 -156.260239 12.492791 8.924445 -18.601317 
-0.566042 0.253701 0.900157 62.904502 -4.836738 86.301252 11.063781 5.588704 -56.688746 -3.073557 25.973353 90.240622 4.977150 8.664658 -30.890360 0.000000 -0.000000 0.000000 -3.775440 2.175296 -27.869885 -4.643114 -7.503878 64.550958 0.110702 -15.898563 -34.314858 0.000000 -0.000000 0.000000 -0.831468 -0.655601 31.158014 3.739986 -5.852594 -4.977192 -0.203915 -2.791518 16.637464 2.794443 -1.227498 30.419856 -3.225721 5.579786 -2.796043 -11.796102 24.232555 -5.314662 -70.411421 -1.991498 17.820597 176.919321 -55.701114 -139.924656 -9.038497 -7.314998 -18.283548 12.445680 -15.986619 -10.209409 68.005538 7.352853 19.690868 167.184839 62.022906 -155.926899 13.294456 9.080737 -18.519776 
-0.541816 0.237189 0.899792 62.951468 -4.212723 85.279514 9.852273 5.329650 -54.583907 -4.171752 25.404336 79.302164 5.253994 10.056623 -30.043709 0.000000 -0.000000 0.000000 -2.358884 2.089965 -24.153357 -4.605933 -7.143754 64.064237 1.019592 -16.366085 -35.948227 0.000000 -0.000000 0.000000 -0.869301 -0.334050 30.305555 3.577606 -6.127031 -4.466274 -0.184727 -2.705078 16.945785 2.582169 -1.488315 30.329622 -3.131853 5.816176 -2.080538 -11.751624 24.233659 -5.439750 -70.773865 -1.360862 17.835892 177.741627 -55.942864 -141.226603 -9.774419 -7.324357 -17.992764 12.230679 -16.157977 -10.367147 68.350290 6.850395 20.246699 167.105740 62.404443 -156.061009 14.043166 9.235943 -18.488106 
-0.515927 0.220461 0.901954 63.066168 -3.606595 84.624684 8.484255 4.828666 -51.018903 -5.781845 24.217654 66.051019 5.518714 11.503049 -28.835415 0.000000 -0.000000 0.000000 -0.975697 1.716727 -20.300164 -4.485486 -6.654640 62.630193 1.947213 -16.756391 -37.141368 0.000000 -0.000000 0.000000 -1.079953 0.002385 29.001117 3.488613 -6.341145 -4.212110 -0.077257 -2.666893 17.215339 2.315515 -1.745376 29.466735 -3.033812 6.211372 -1.816113 -11.844068 24.317956 -5.778379 -70.915607 -0.636552 17.880283 178.405286 -55.904442 -142.479468 -10.140820 -7.294489 -17.816127 12.025259 -16.547249 -10.757414 68.691691 6.237090 20.881735 167.018881 62.593364 -156.361642 14.626195 9.413697 -18.619442 
